<svg xmlns="http://www.w3.org/2000/svg" xmlns:xlink="http://www.w3.org/1999/xlink" version="1.1" x="0px" y="0px" viewBox="0 0 100 125" enable-background="new 0 0 100 100" xml:space="preserve"><path d="M83.143,43.286V31.714C83.143,17.572,71.57,6,57.429,6H44.571C30.429,6,18.856,17.572,18.856,31.714v11.572L6,76.715  C6,83.143,26.147,96,51,96s45-12.857,45-19.285L83.143,43.286z M31.714,85.554c-1.332,0-2.411-1.08-2.411-2.411  c0-1.333,1.079-2.41,2.411-2.41c1.333,0,2.411,1.077,2.411,2.41C34.125,84.474,33.047,85.554,31.714,85.554 M28.5,51  c0-1.768,0.894-4.353,1.983-5.743c0,0,3.055-3.9,9.267-3.9c3.152,0,5.351,1.449,5.351,1.449c1.477,0.971,2.685,3.212,2.685,4.979  v4.822c0,0.883-1.446,1.607-3.214,1.607H31.714C29.946,54.215,28.5,52.767,28.5,51 M41.356,83.143h-3.214v-6.428l3.214-3.215V83.143  z M49.392,83.143h-4.821V70.286h4.821V83.143z M46.178,67.071V62.25c0-2.664,2.161-4.821,4.822-4.821  c2.662,0,4.821,2.157,4.821,4.821v4.821H46.178z M57.429,83.143h-4.821V70.286h4.821V83.143z M63.857,83.143h-3.214V73.5  l3.214,3.215V83.143z M70.286,85.554c-1.333,0-2.411-1.08-2.411-2.411c0-1.333,1.078-2.41,2.411-2.41c1.331,0,2.41,1.077,2.41,2.41  C72.696,84.474,71.617,85.554,70.286,85.554 M70.286,54.215H57.429c-1.769,0-3.214-0.725-3.214-1.607v-4.822  c0-1.768,1.207-4.009,2.685-4.979c0,0,2.199-1.449,5.351-1.449c6.215,0,9.267,3.9,9.267,3.9C72.608,46.647,73.5,49.232,73.5,51  C73.5,52.767,72.052,54.215,70.286,54.215 M90.153,78.213c-0.19,0.075-0.388,0.108-0.582,0.108c-0.645,0-1.251-0.389-1.496-1.023  L76.386,47.273c-3.091-7.723-6.912-10.738-13.625-10.738c-4.453,0-8.19,2.762-8.224,2.792c-1.984,1.487-5.088,1.48-7.073,0  c-0.033-0.03-3.806-2.792-8.226-2.792c-6.711,0-10.532,3.015-13.628,10.751L13.926,77.298c-0.321,0.827-1.257,1.237-2.081,0.915  c-0.825-0.32-1.236-1.252-0.913-2.082L22.62,46.108c3.585-8.966,8.554-12.787,16.618-12.787c5.515,0,9.968,3.294,10.154,3.431  c0.842,0.634,2.375,0.634,3.215,0c0.187-0.137,4.642-3.431,10.153-3.431c8.065,0,13.033,3.821,16.615,12.774L91.07,76.131  C91.39,76.961,90.982,77.893,90.153,78.213"/><text x="0" y="115" fill="#000000" font-size="5px" font-weight="bold" font-family="'Helvetica Neue', Helvetica, Arial-Unicode, Arial, Sans-serif">Created by Rohith M S</text><text x="0" y="120" fill="#000000" font-size="5px" font-weight="bold" font-family="'Helvetica Neue', Helvetica, Arial-Unicode, Arial, Sans-serif">from the Noun Project</text></svg>