<svg xmlns="http://www.w3.org/2000/svg" xmlns:xlink="http://www.w3.org/1999/xlink" version="1.1" x="0px" y="0px" viewBox="0 0 100 125" enable-background="new 0 0 100 100" xml:space="preserve"><path fill="#000000" d="M69.908,1.511c-6.283,3.22-1.635,21.541-7.123,29.123c-3.412,4.71-17.174,4.454-25.884,8.272  c-0.765-2.601-8.174-11.608-10.021-10.659c-4.393,2.25-7.075,12.329-6.742,20.13c-9.48,5.902-20.415,32.881-15.117,42.37  c0.368,0.659,8.511-4.167,8.578-4.089c0.12,0.14-5.886,6.796-5.223,7.111c8.905,4.226,29.971-1.309,38.604-7.414  c7.458,1.895,20.024,0.309,21.504-4.633c0.884-2.945-7.319-7.293-10.668-8.931C65.5,61.584,66.375,40.584,70.27,37.678  c8.201-5.638,26.516,0.693,28.477-5.846c1.436-4.78-15.627-12.426-15.627-12.426S76,0,69.908,1.511z M10.527,77.939  c-1.729-1.818-1.657-4.693,0.161-6.422c1.817-1.729,4.694-1.658,6.422,0.16c1.728,1.817,1.655,4.692-0.161,6.42  C15.132,79.829,12.256,79.758,10.527,77.939z M36.722,64.062c3.057,4.588,5.486,21.432,5.486,21.432s-5.239-14.844-8.276-19.329  c-2.819-4.16-15.91-12.187-15.91-12.187S33.711,59.551,36.722,64.062z"/><text x="0" y="115" fill="#000000" font-size="5px" font-weight="bold" font-family="'Helvetica Neue', Helvetica, Arial-Unicode, Arial, Sans-serif">Created by Mario Bieh</text><text x="0" y="120" fill="#000000" font-size="5px" font-weight="bold" font-family="'Helvetica Neue', Helvetica, Arial-Unicode, Arial, Sans-serif">from the Noun Project</text></svg>