<svg xmlns="http://www.w3.org/2000/svg" xmlns:xlink="http://www.w3.org/1999/xlink" xmlns:sketch="http://www.bohemiancoding.com/sketch/ns" viewBox="0 0 57 71.25" version="1.1" x="0px" y="0px"><title>28 - Ghost (Solid)</title><desc>Created with Sketch.</desc><g stroke="none" stroke-width="1" fill="none" fill-rule="evenodd" sketch:type="MSPage"><g sketch:type="MSLayerGroup" transform="translate(-1.000000, 0.000000)" fill="#000000"><path d="M57.164,23.836 C55.872,17.701 52.917,16.412 50.573,16.412 L50.571,16.412 C49.335,16.432 48.075,16.935 46.927,17.865 C46.106,18.529 45.361,18.582 44.517,18.051 C43.724,17.549 43.164,16.651 43.02,15.649 C41.712,6.572 37.255,2.66 33.747,0.977 C31.162,-0.264 27.861,-0.266 25.271,0.976 C21.754,2.66 17.287,6.573 15.98,15.649 C15.836,16.649 15.278,17.546 14.487,18.048 C13.641,18.583 12.896,18.532 12.073,17.864 C10.923,16.934 9.663,16.432 8.339,16.411 C6.085,16.411 3.128,17.699 1.823,23.917 C1.763,24.39 0.37,35.554 1.345,40.666 C1.487,41.413 2.12,41.935 2.884,41.935 C3.507,41.935 4.054,41.582 4.31,41.014 C5.049,39.373 6.361,36.968 8.407,34.822 C8.558,34.663 8.699,34.671 8.822,34.84 C9.455,35.7 10.084,36.403 10.69,36.93 C11.86,37.947 13.727,37.909 14.861,36.849 C15.061,36.661 15.256,36.46 15.447,36.244 C14.981,42.666 14.606,53.436 17.016,56.107 C17.609,56.765 18.261,56.902 18.704,56.902 C19.308,56.902 19.936,56.649 20.571,56.151 C20.783,56.025 21.675,55.514 22.846,55.043 C24.136,54.524 25.63,54.622 26.755,55.301 C27.223,55.584 27.733,55.818 28.253,55.992 C28.273,56.014 28.293,56.035 28.315,56.056 C28.511,56.239 28.773,56.347 29.04,56.326 C29.186,56.32 29.329,56.304 29.5,56.279 C29.651,56.302 29.803,56.32 29.96,56.326 C30.239,56.35 30.491,56.239 30.686,56.055 C30.707,56.034 30.728,56.014 30.747,55.992 C31.267,55.818 31.777,55.584 32.243,55.302 C33.371,54.622 34.865,54.524 36.154,55.043 C37.325,55.514 38.217,56.025 38.429,56.151 C39.065,56.649 39.692,56.902 40.296,56.902 C40.739,56.902 41.391,56.765 41.984,56.106 C44.395,53.435 44.019,42.667 43.553,36.244 C43.744,36.46 43.939,36.661 44.139,36.849 C45.273,37.909 47.139,37.947 48.31,36.93 C48.918,36.402 49.546,35.699 50.177,34.84 C50.316,34.652 50.465,34.688 50.593,34.822 C52.638,36.967 53.95,39.373 54.69,41.014 C54.947,41.582 55.493,41.935 56.115,41.935 C56.879,41.935 57.512,41.413 57.655,40.666 C58.63,35.554 57.237,24.39 57.164,23.836 L57.164,23.836 Z M20,15.984 L20,14.016 C20,12.352 21.353,11 23.016,11 L24.984,11 C26.647,11 28,12.352 28,14.016 L28,15.984 C28,17.647 26.647,19 24.984,19 L23.016,19 C21.353,19 20,17.647 20,15.984 L20,15.984 Z M35.081,28.488 C34.538,29.982 33.619,32.07 32.322,33.536 C31.662,34.28 30.715,34.707 29.723,34.707 C28.731,34.707 27.784,34.28 27.125,33.536 C25.832,32.076 24.914,29.994 24.371,28.505 C23.884,27.171 23.877,25.784 24.351,24.602 C25.697,21.235 29.56,21.196 29.723,21.196 C29.902,21.199 33.751,21.297 35.095,24.626 C35.567,25.795 35.563,27.167 35.081,28.488 L35.081,28.488 Z M39,15.984 C39,17.647 37.647,19 35.984,19 L34.016,19 C32.353,19 31,17.647 31,15.984 L31,14.016 C31,12.352 32.353,11 34.016,11 L35.984,11 C37.647,11 39,12.352 39,14.016 L39,15.984 L39,15.984 Z" sketch:type="MSShapeGroup"/></g></g><text x="0" y="72" fill="#000000" font-size="5px" font-weight="bold" font-family="'Helvetica Neue', Helvetica, Arial-Unicode, Arial, Sans-serif">Created by Oliviu Stoian</text><text x="0" y="77" fill="#000000" font-size="5px" font-weight="bold" font-family="'Helvetica Neue', Helvetica, Arial-Unicode, Arial, Sans-serif">from the Noun Project</text></svg>