<?xml version="1.0" encoding="utf-8"?><!DOCTYPE svg PUBLIC "-//W3C//DTD SVG 1.1//EN" "http://www.w3.org/Graphics/SVG/1.1/DTD/svg11.dtd"><svg version="1.1" xmlns="http://www.w3.org/2000/svg" xmlns:xlink="http://www.w3.org/1999/xlink" x="0px" y="0px" viewBox="0 0 10 10" enable-background="new 0 0 10 10" xml:space="preserve"><g><path fill="#010101" d="M2,0v1h1v1h-1v1h-1v1h-1v3h1v-2h1v2h1v1h2v-1h-2v-1h5v1h-2v1h2v-1h1v-2h1v2h1v-3h-1v-1h-1v-1h-1v-1h1v-1h-1v1h-1v1h-3v-1h-1v-1z"/><path fill="#ffffff" d="M3,3v1h1v-1z"/><path fill="#ffffff" d="M7,3v1h1v-1z"/></g></svg>