<svg xmlns="http://www.w3.org/2000/svg" xmlns:xlink="http://www.w3.org/1999/xlink" version="1.1" x="0px" y="0px" viewBox="0 0 100 125" enable-background="new 0 0 100 100" xml:space="preserve"><g><g><path d="M34.305,31.591c0.106-0.18,0.172-0.386,0.146-0.61c-0.346-3.019-5.377-6.307-8.935-2.071    c-0.836,0.997,0.681,2.271,1.517,1.273c1.253-1.49,2.825-1.783,4.418-0.538c-1.092-0.252-3.334-0.275-4.946,1.836    c-0.375,0.494-0.213,1.208,0.343,1.485c3.229,1.617,4.774,1.159,6.832,0.116C33.681,33.083,34.869,32.613,34.305,31.591z     M29.161,31.787c0.787-0.383,1.748-0.369,2.522,0.042C30.956,32.099,30.203,32.116,29.161,31.787z M90.421,83.053    c-10.293-9.495-15.23-28.516-16.903-42.984c-0.645-4.864-1.057-9.359-1.396-13.063C70.714,11.646,59.651,0.5,45.818,0.5    c-10.92,0-20.382,7.248-22.884,16.676c-6.322,5.436-7.131,12.174-5.22,15.549c-3.38,9.669-3.378,21.59,2.353,32.572    c-1.044,6.317-2.582,11.803-4.846,15.602c-2.039,1.148-3.959,2.516-5.698,4.105c-1.072,0.976,0.476,2.249,1.336,1.461    c2.786-2.544,6.049-4.51,9.563-5.8c-2.51,3.154-4.661,6.621-6.291,10.279c-0.564,1.263,1.302,1.939,1.809,0.806    c0.547-1.226,1.157-2.431,1.818-3.609c2.163,7.872,18.556,11.807,32.736,11.318h0.001c0,0,0.001,0,0.002,0    c0.289-0.025,0.512-0.107,0.688-0.279c12.487-12.103,29.561-19.231,38.071-14.513C90.34,85.487,91.479,83.766,90.421,83.053z     M40.961,3.035c14.151-3.22,28.619,7.695,29.45,26.978C62.323,13.261,43.223,10.056,37.465,9.701    C37.741,7.577,38.856,4.639,40.961,3.035z M40.276,11.994c-1.235-0.029-5.454-0.263-8.211,0.483    C33.652,11.963,36.091,11.235,40.276,11.994z M37.386,4.169c-1.151,1.886-1.753,4.01-1.92,5.603    c-3.289,0.309-6.398,1.479-8.52,3.152C29.291,9.1,33.002,5.975,37.386,4.169z M19.733,32.935c0.129-0.349-0.024-0.78-0.154-0.953    c-0.993-1.256-1.478-6.538,3.163-11.806c-0.249,2.202-0.461,28.834-2.15,41.595C16.521,52.306,16.447,41.984,19.733,32.935z     M18.221,79.416c4.058-8.896,5.391-23.229,5.827-37.384c1.916,9.923,6.874,16.813,12.15,18.902    c0.084,2.57,0.604,4.839,1.084,6.422c-5.251,2.279-10.245,5.947-14.46,10.502C21.249,78.253,19.711,78.777,18.221,79.416z     M55.821,92.586c-1.993,1.523-3.91,3.165-5.721,4.898c-8.642,0-13.638-0.721-18.304-1.991c0.252-0.325,0.631-0.678,1.215-0.934    c1.206-0.525,0.409-2.347-0.794-1.813c-1.304,0.569-2.01,1.466-2.393,2.165c-6.259-2.028-10.312-5.042-10.312-8.341    c0-4.106,11.375-14.667,18.423-17.341c0.517,1.131,2.379,0.438,1.8-0.826c-0.4-0.867-1.307-3.404-1.529-6.91    c2.689,0.426,12.537-0.393,21.073-8.927c0.923-0.923-0.478-2.323-1.399-1.398c-4.21,4.209-11.52,8.457-18.354,8.457    c-13.385,0-17.417-30.015-13.39-42.355c5.905-4.972,23.144-3.693,25.796-0.83c0.005,0.005,0.013,0.007,0.019,0.012    c12.849,14.817,6.392,73.741,3.877,76.124C55.827,92.578,55.825,92.584,55.821,92.586z M58.702,90.512    c4.039-14.891,5.387-59.84-4.165-73.902c7.404,3.927,14.837,10.951,16.994,23.525c1.806,13.708,5.449,30.441,14.556,41.236    C80.063,80.11,69.402,83.161,58.702,90.512z M51.38,29.236c-0.265-0.067-0.735-0.427-1.019-0.613    c-6.84-4.477-10.925,1.111-11.215,1.513c-0.838,1.159,0.893,2.144,1.604,1.158c1.059-1.467,3.854-4.071,8.738-0.879    c0.678,0.443,1.213,0.792,1.811,0.792C52.6,31.207,52.729,29.438,51.38,29.236z M40.979,31.461    c-0.403,0.5-0.233,1.244,0.345,1.518c3.955,2.171,6.67,0.315,7.393,0c0.521-0.248,0.782-0.973,0.346-1.517    C46.971,28.865,43.062,28.889,40.979,31.461z M43.708,31.786c0.848-0.381,1.886-0.366,2.718,0.042    C45.643,32.097,44.822,32.118,43.708,31.786z M42.492,47.848c-2.445,0.746-3.695-0.551-6.395,0.496    c-0.894,0-1.597-0.906-3.76-0.454c-1.268,0.062-1.176,2.011,0.097,1.978c0.362,0,0.706-0.122,1.07-0.122    c0.573,0,1.656,0.586,2.741,0.586c0.488,0,1.16-0.463,1.854-0.463c0.338,0,1.455,0.152,1.361,0.18    c-1.775,0.536-4.078,0.471-4.95,0.055c-1.163-0.554-2.017,1.233-0.852,1.787c1.415,0.675,4.296,0.683,6.373,0.054    c0.927-0.278,0.983-1.711-0.113-1.911c1.095,0.072,2.379,0.056,3.361-0.367C44.478,49.148,43.691,47.332,42.492,47.848z     M32.607,39.949l-0.784,3.007c-0.114,0.56,0.133,1.378,0.963,1.43c2.361,3.619,6.151,0.107,6.473,0.167    c0.991,0.837,2.322-0.625,1.334-1.466c-1.235-1.047-2.392-0.289-3.161,0.214c-2.718,1.657-2.563,0.095-3.43-0.479l0.539-2.446    C34.829,39.069,32.896,38.644,32.607,39.949z"/></g></g><text x="0" y="115" fill="#000000" font-size="5px" font-weight="bold" font-family="'Helvetica Neue', Helvetica, Arial-Unicode, Arial, Sans-serif">Created by Jake Dunham</text><text x="0" y="120" fill="#000000" font-size="5px" font-weight="bold" font-family="'Helvetica Neue', Helvetica, Arial-Unicode, Arial, Sans-serif">from the Noun Project</text></svg>