<svg xmlns="http://www.w3.org/2000/svg" xmlns:xlink="http://www.w3.org/1999/xlink" version="1.1" x="0px" y="0px" viewBox="0 0 90 112.5" enable-background="new 0 0 90 90" xml:space="preserve"><path d="M89.53,5.132V70.24c0,9.403-10.806,12.776-17.755,12.776c-9.805,0-17.755-5.719-17.755-12.776  c0-7.057,7.95-12.779,17.755-12.779c4.241,0,8.134,1.073,11.19,2.855c0,0,0-24.807,0-41.492l-46.984,5.006v52.115  c0,9.403-10.806,12.776-17.755,12.776c-9.805,0-17.755-5.719-17.755-12.776s7.951-12.778,17.755-12.778  c4.241,0,8.134,1.07,11.19,2.855c0,0,0-53.629,0-56.001c0-2.373,2-2.889,3.275-3.025c1.274-0.135,53.55-5.704,53.55-5.704  C88.695,1.13,89.53,2.244,89.53,5.132z"/><text x="0" y="105" fill="#000000" font-size="5px" font-weight="bold" font-family="'Helvetica Neue', Helvetica, Arial-Unicode, Arial, Sans-serif">Created by Parker Foote</text><text x="0" y="110" fill="#000000" font-size="5px" font-weight="bold" font-family="'Helvetica Neue', Helvetica, Arial-Unicode, Arial, Sans-serif">from the Noun Project</text></svg>