<svg xmlns:dc="http://purl.org/dc/elements/1.1/" xmlns:cc="http://creativecommons.org/ns#" xmlns:rdf="http://www.w3.org/1999/02/22-rdf-syntax-ns#" xmlns:svg="http://www.w3.org/2000/svg" xmlns="http://www.w3.org/2000/svg" version="1.1" viewBox="0 0 100.00001 125" xml:space="preserve" x="0px" y="0px"><path d="M 49.9375,5 C 48.70828,5.0108 47.48495,5.14442 46.34375,5.375 35.230909,7.6597402 26.39258,18.322909 27.125,29.65625 c 0.43506,6.72966 -0.03266,17.404269 6.625,19.65625 4.436281,1.49994 4.18875,3.988469 5.71875,7.78125 1.521541,3.77136 6.79092,4.13171 10.5,4.34375 0.0162,0 0.01541,-0.0036 0.03125,0 0.0162,0 0.04684,0 0.0625,0 3.709261,-0.21204 8.94703,-0.57239 10.46875,-4.34375 1.53,-3.792781 1.282469,-6.28131 5.71875,-7.78125 6.65802,-2.252161 6.19012,-12.92659 6.625,-19.65625 C 73.60778,18.321649 64.770531,7.6581202 53.65625,5.375 52.41533,5.10014 51.1669,4.98902 49.9375,5 z M 39.375,32.6875 c 1.899001,0.01854 3.71883,0.38357 4.96875,0.96875 1.539181,0.72072 1.81466,1.901449 1.8125,4.53125 -0.0018,2.63952 -1.32937,5.71544 -5.03125,6.875 -2.677141,0.8388 -8.71738,-0.310179 -9.8125,-4 -0.53766,-1.81134 -0.36332,-3.826999 0.4375,-5.375 1.11762,-2.16018 4.46042,-3.03114 7.625,-3 z m 21.25,0 c 3.16458,-0.03114 6.50756,0.83982 7.625,3 0.80082,1.548001 0.97516,3.56366 0.4375,5.375 -1.09512,3.689821 -7.13518,4.8388 -9.8125,4 -3.701881,-1.15956 -5.02909,-4.23548 -5.03125,-6.875 -0.0018,-2.629801 0.2735,-3.81053 1.8125,-4.53125 1.2501,-0.58518 3.06975,-0.95021 4.96875,-0.96875 z M 49.96875,43.28125 c 0.8586,-0.0054 1.622649,0.59448 2.03125,1.3125 0.55548,1.36494 1.02736,2.75124 1.5625,4.125 0.558,1.086841 0.90797,2.65475 -0.34375,3.40625 -1.28376,0.94464 -2.77493,-0.15183 -4.15625,0.28125 -1.4931,0.55944 -3.528561,-0.58983 -3.125,-2.34375 0.47682,-1.472041 1.09292,-2.91016 1.625,-4.375 0.33228,-1.14246 1.05985,-2.39455 2.40625,-2.40625 z m -32.09375,8.75 c -0.965777,0.04045 -2.011816,0.297908 -3.09375,0.78125 -2.058783,0.919739 -2.779774,1.688424 -2.9375,4 -0.202706,2.971452 5.184126,2.210393 1.4375,7.5 -2.743407,3.872827 2.353248,6.61609 5.1875,6.1875 4.938801,-0.746988 9.851217,-0.360608 14.34375,1.15625 2.546908,0.859987 5.084579,1.712968 7.625,2.59375 -6.26172,2.030254 -12.498062,3.801673 -18.6875,5.125 -2.389163,0.504113 -5.129598,-0.681978 -7.34375,0.3125 -1.406372,0.631984 -2.225305,2.487105 -2.5,4.21875 -0.477498,3.009262 2.46462,4.672222 2.78125,7.96875 0.448134,4.66941 5.7734,3.524548 7.71875,0.28125 2.385038,-3.976241 6.391273,-6.300844 10.5,-7.96875 C 38.553945,81.894967 44.271604,79.734874 50,77.65625 c 5.728396,2.078624 11.446055,4.238717 17.09375,6.53125 4.108727,1.667906 8.114962,3.992509 10.5,7.96875 1.945351,3.243298 7.270616,4.38816 7.71875,-0.28125 0.31663,-3.296528 3.258748,-4.959488 2.78125,-7.96875 -0.274694,-1.731645 -1.093628,-3.586766 -2.5,-4.21875 C 83.379598,78.693022 80.639163,79.879113 78.25,79.375 72.060562,78.051673 65.824219,76.280254 59.5625,74.25 c 2.540421,-0.880782 5.078092,-1.733763 7.625,-2.59375 4.492533,-1.516858 9.404949,-1.903238 14.34375,-1.15625 2.834252,0.42859 7.930907,-2.314673 5.1875,-6.1875 -3.746626,-5.289607 1.640206,-4.528548 1.4375,-7.5 -0.157726,-2.311576 -0.878717,-3.080261 -2.9375,-4 -4.327737,-1.933369 -7.674232,-0.258664 -10.5625,4.53125 -2.888562,4.790013 -6.247629,6.236778 -9.4375,7.59375 C 60.15401,67.07493 55.077736,69.099888 50,70.96875 44.922264,69.099888 39.84599,67.07493 34.78125,64.9375 31.591378,63.580528 28.232312,62.133763 25.34375,57.34375 23.177549,53.751315 20.772332,51.909899 17.875,52.03125 z" transform="translate(0,-5e-6)" style="" fill="#000000" fill-opacity="1" stroke="none"/><text x="0" y="115" fill="#000000" font-size="5px" font-weight="bold" font-family="'Helvetica Neue', Helvetica, Arial-Unicode, Arial, Sans-serif">Created by Aha-Soft</text><text x="0" y="120" fill="#000000" font-size="5px" font-weight="bold" font-family="'Helvetica Neue', Helvetica, Arial-Unicode, Arial, Sans-serif">from the Noun Project</text></svg>