<?xml version="1.0" encoding="utf-8"?><!DOCTYPE svg PUBLIC "-//W3C//DTD SVG 1.1//EN" "http://www.w3.org/Graphics/SVG/1.1/DTD/svg11.dtd"><svg version="1.1" xmlns="http://www.w3.org/2000/svg" xmlns:xlink="http://www.w3.org/1999/xlink" x="0px" y="0px" viewBox="0 0 20 20" enable-background="new 0 0 20 20" xml:space="preserve"><g><path fill="#010101" d="M7,0v2h-1v2h-1v1h-5v1h1v1h1v1h1v1h1v2h-1v3h-1v2h2v-1h1v-1h2v-1h2v1h2v1h1v1h2v-2h-1v-3h-1v-2h1v-1h1v-1h1v-1h1v-1h-5v-1h-1v-2h-1v-2éz"/><path fill="#ffffff" d="M6,6v3h1v-3z"/><path fill="#ffffff" d="M9,6v3h1v-3z"/></g></svg>